<mxfile host="app.diagrams.net" modified="2024-05-30T09:56:55.470Z" agent="Mozilla/5.0 (Windows NT 10.0; Win64; x64) AppleWebKit/537.36 (KHTML, like Gecko) Chrome/125.0.0.0 Safari/537.36 Edg/125.0.0.0" etag="bKdbt4ofTK3RuaaHPzzK" version="24.4.0" type="github">
  <diagram name="第 1 页" id="X00CZErsw5lxIn04xf_R">
    <mxGraphModel dx="1213" dy="631" grid="1" gridSize="10" guides="1" tooltips="1" connect="1" arrows="1" fold="1" page="1" pageScale="1" pageWidth="827" pageHeight="1169" math="0" shadow="0">
      <root>
        <mxCell id="0" />
        <mxCell id="1" parent="0" />
        <mxCell id="4k-sA4LPTLcVA16bypzs-78" value="" style="edgeStyle=orthogonalEdgeStyle;rounded=0;orthogonalLoop=1;jettySize=auto;html=1;fontSize=16;" edge="1" parent="1" source="4k-sA4LPTLcVA16bypzs-76" target="4k-sA4LPTLcVA16bypzs-77">
          <mxGeometry relative="1" as="geometry" />
        </mxCell>
        <mxCell id="4k-sA4LPTLcVA16bypzs-76" value="开始" style="ellipse;whiteSpace=wrap;html=1;fontSize=16;fillColor=#fff2cc;strokeColor=#d6b656;" vertex="1" parent="1">
          <mxGeometry x="350" width="120" height="80" as="geometry" />
        </mxCell>
        <mxCell id="4k-sA4LPTLcVA16bypzs-80" value="" style="edgeStyle=orthogonalEdgeStyle;rounded=0;orthogonalLoop=1;jettySize=auto;html=1;fontSize=16;" edge="1" parent="1" source="4k-sA4LPTLcVA16bypzs-77" target="4k-sA4LPTLcVA16bypzs-79">
          <mxGeometry relative="1" as="geometry" />
        </mxCell>
        <mxCell id="4k-sA4LPTLcVA16bypzs-77" value="数据预处理" style="whiteSpace=wrap;html=1;fontSize=16;fillColor=#ffe6cc;strokeColor=#d79b00;" vertex="1" parent="1">
          <mxGeometry x="350" y="100" width="120" height="60" as="geometry" />
        </mxCell>
        <mxCell id="4k-sA4LPTLcVA16bypzs-82" value="" style="edgeStyle=orthogonalEdgeStyle;rounded=0;orthogonalLoop=1;jettySize=auto;html=1;fontSize=16;" edge="1" parent="1" source="4k-sA4LPTLcVA16bypzs-79" target="4k-sA4LPTLcVA16bypzs-81">
          <mxGeometry relative="1" as="geometry" />
        </mxCell>
        <mxCell id="4k-sA4LPTLcVA16bypzs-79" value="图像融合" style="whiteSpace=wrap;html=1;fontSize=16;fillColor=#f5f5f5;fontColor=#333333;strokeColor=#666666;" vertex="1" parent="1">
          <mxGeometry x="350" y="190" width="120" height="60" as="geometry" />
        </mxCell>
        <mxCell id="4k-sA4LPTLcVA16bypzs-84" value="" style="edgeStyle=orthogonalEdgeStyle;rounded=0;orthogonalLoop=1;jettySize=auto;html=1;fontSize=16;" edge="1" parent="1" source="4k-sA4LPTLcVA16bypzs-81" target="4k-sA4LPTLcVA16bypzs-83">
          <mxGeometry relative="1" as="geometry" />
        </mxCell>
        <mxCell id="4k-sA4LPTLcVA16bypzs-81" value="输入到预训练模型中" style="whiteSpace=wrap;html=1;fontSize=16;fillColor=#dae8fc;strokeColor=#6c8ebf;" vertex="1" parent="1">
          <mxGeometry x="350" y="280" width="120" height="60" as="geometry" />
        </mxCell>
        <mxCell id="4k-sA4LPTLcVA16bypzs-88" style="edgeStyle=orthogonalEdgeStyle;rounded=0;orthogonalLoop=1;jettySize=auto;html=1;entryX=0.5;entryY=0;entryDx=0;entryDy=0;fontSize=16;" edge="1" parent="1" source="4k-sA4LPTLcVA16bypzs-83" target="4k-sA4LPTLcVA16bypzs-87">
          <mxGeometry relative="1" as="geometry" />
        </mxCell>
        <mxCell id="4k-sA4LPTLcVA16bypzs-83" value="输出预测结果" style="whiteSpace=wrap;html=1;fontSize=16;fillColor=#d5e8d4;strokeColor=#82b366;" vertex="1" parent="1">
          <mxGeometry x="350" y="370" width="120" height="60" as="geometry" />
        </mxCell>
        <mxCell id="4k-sA4LPTLcVA16bypzs-87" value="结束" style="ellipse;whiteSpace=wrap;html=1;fontSize=16;fillColor=#e1d5e7;strokeColor=#9673a6;" vertex="1" parent="1">
          <mxGeometry x="350" y="460" width="120" height="80" as="geometry" />
        </mxCell>
      </root>
    </mxGraphModel>
  </diagram>
</mxfile>
